<svg style="display:none;">
  <symbol id="icon-liebiao" viewBox="0 0 1024 1024">
    <path
      d="M892.928 128q28.672 0 48.64 19.968t19.968 48.64l0 52.224q0 28.672-19.968 48.64t-48.64 19.968l-759.808 0q-28.672 0-48.64-19.968t-19.968-48.64l0-52.224q0-28.672 19.968-48.64t48.64-19.968l759.808 0zM892.928 448.512q28.672 0 48.64 19.968t19.968 48.64l0 52.224q0 28.672-19.968 48.64t-48.64 19.968l-759.808 0q-28.672 0-48.64-19.968t-19.968-48.64l0-52.224q0-28.672 19.968-48.64t48.64-19.968l759.808 0zM892.928 769.024q28.672 0 48.64 19.968t19.968 48.64l0 52.224q0 28.672-19.968 48.64t-48.64 19.968l-759.808 0q-28.672 0-48.64-19.968t-19.968-48.64l0-52.224q0-28.672 19.968-48.64t48.64-19.968l759.808 0z">
    </path>
  </symbol>
  <symbol id="icon-gengduotianchong" viewBox="0 0 1024 1024">
    <path
      d="M267.388928 514.13504c0 58.960896-47.794176 106.753024-106.754048 106.753024S53.880832 573.095936 53.880832 514.13504s47.793152-106.761216 106.753024-106.761216S267.388928 455.175168 267.388928 514.13504z">
    </path>
    <path
      d="M619.495424 514.13504c0 58.960896-47.794176 106.753024-106.754048 106.753024s-106.753024-47.793152-106.753024-106.753024 47.793152-106.761216 106.753024-106.761216S619.495424 455.175168 619.495424 514.13504z">
    </path>
    <path
      d="M971.602944 514.13504c0 58.960896-47.794176 106.753024-106.754048 106.753024s-106.753024-47.793152-106.753024-106.753024S805.888 407.374848 864.848896 407.374848 971.602944 455.175168 971.602944 514.13504z">
    </path>
  </symbol>
  <symbol id="icon-xiayiyeqianjinchakangengduo-yuankuang" viewBox="0 0 1024 1024">
    <path
      d="M512 64C264.8 64 64 264.8 64 512s200.8 448 448 448 448-200.8 448-448S759.2 64 512 64zM398.4 784l-45.6-45.6L580 512 353.6 285.6l45.6-45.6 272 272-272.8 272z">
    </path>
  </symbol>
  <symbol id="icon-ziyuanxhdpi" viewBox="0 0 1090 1080">
    <path
      d="M391.590396 480.453572H88.863176a88.863176 88.863176 0 0 1-88.863176-88.863176V88.863176a88.863176 88.863176 0 0 1 88.863176-88.863176h302.72722a88.863176 88.863176 0 0 1 88.863176 88.863176v302.72722a88.863176 88.863176 0 0 1-88.863176 88.863176zM88.863176 59.242117a29.621059 29.621059 0 0 0-29.621059 29.621059v302.72722a29.621059 29.621059 0 0 0 29.621059 29.621059h302.72722a29.621059 29.621059 0 0 0 29.621059-29.621059V88.863176a29.621059 29.621059 0 0 0-29.621059-29.621059zM941.653457 480.453572H638.926237a88.863176 88.863176 0 0 1-88.863177-88.863176V88.863176a88.863176 88.863176 0 0 1 88.863177-88.863176h302.72722a88.863176 88.863176 0 0 1 88.863176 88.863176v302.72722a88.863176 88.863176 0 0 1-88.863176 88.863176zM638.926237 59.242117a29.621059 29.621059 0 0 0-29.621059 29.621059v302.72722a29.621059 29.621059 0 0 0 29.621059 29.621059h302.72722a29.621059 29.621059 0 0 0 29.621058-29.621059V88.863176a29.621059 29.621059 0 0 0-29.621058-29.621059zM941.653457 1019.853052H638.926237a88.863176 88.863176 0 0 1-88.863177-88.863176V628.262655a88.863176 88.863176 0 0 1 88.863177-88.863176h302.72722a88.863176 88.863176 0 0 1 88.863176 88.863176v302.727221a88.863176 88.863176 0 0 1-88.863176 88.863176zM638.926237 598.641597a29.621059 29.621059 0 0 0-29.621059 29.621058v302.727221a29.621059 29.621059 0 0 0 29.621059 29.621058h302.72722a29.621059 29.621059 0 0 0 29.621058-29.621058V628.262655a29.621059 29.621059 0 0 0-29.621058-29.621058zM391.590396 1024H88.863176a88.863176 88.863176 0 0 1-88.863176-88.863176V632.409604a88.863176 88.863176 0 0 1 88.863176-88.863176h302.72722a88.863176 88.863176 0 0 1 88.863176 88.863176v302.72722a88.863176 88.863176 0 0 1-88.863176 88.863176zM88.863176 602.788545a29.621059 29.621059 0 0 0-29.621059 29.621059v302.72722a29.621059 29.621059 0 0 0 29.621059 29.621059h302.72722a29.621059 29.621059 0 0 0 29.621059-29.621059V632.409604a29.621059 29.621059 0 0 0-29.621059-29.621059z">
    </path>
  </symbol>
</svg>